<?xml version="1.0" encoding="utf-8"?>
<!-- Generator: Adobe Illustrator 21.1.0, SVG Export Plug-In . SVG Version: 6.00 Build 0)  -->
<svg version="1.1" id="Capa_1" xmlns="http://www.w3.org/2000/svg" xmlns:xlink="http://www.w3.org/1999/xlink" x="0px" y="0px"
	 viewBox="0 0 16 17" style="enable-background:new 0 0 16 17;" xml:space="preserve">
<style type="text/css">
	.st0{fill-rule:evenodd;clip-rule:evenodd;fill:#73B3D8;}
</style>
<g id="Shape_36">
	<g>
		<path class="st0" d="M8.9,3.5C8.5,3.4,8.2,3.6,8.1,4C8,4.4,8.2,4.7,8.6,4.8c1.8,0.4,2.9,2.1,2.5,3.9c-0.1,0.4,0.2,0.7,0.5,0.8
			C12,9.6,12.4,9.4,12.5,9C13,6.5,11.4,4,8.9,3.5z M9.6,0C9.2-0.1,8.9,0.2,8.8,0.5C8.7,0.9,8.9,1.3,9.3,1.4c3.6,0.8,6,4.4,5.2,8.1
			c-0.1,0.4,0.2,0.7,0.5,0.8c0.4,0.1,0.7-0.2,0.8-0.5C16.8,5.3,13.9,0.9,9.6,0z M9.5,10.9c-0.1-0.2-0.3-0.2-0.5-0.1l-0.1,0.1
			c-0.3,0.2-1.1,0.7-1.1,0.7c0,0,0,0-0.1,0c-0.5,0.2-2-1.3-2.8-3.1C4.4,7.4,4.4,6.8,4.6,6.6l1.2-0.8C5.9,5.7,6,5.7,6,5.6
			c0-0.1,0-0.2,0-0.3L3.3,1.1C3.2,1,3.1,1,3.1,0.9c-0.1,0-0.2,0-0.3,0L2.6,1.1c-0.4,0.2-1,0.7-1.1,0.7l0,0C-0.1,2.9-1.3,5,2.7,11.4
			c2.7,4.3,5,6.1,7,5.5h0c0.4-0.1,0.8-0.3,1-0.5l0.1,0c0.1,0,1.2-0.8,1.3-0.8c0.2-0.1,0.2-0.3,0.1-0.5L9.5,10.9z"/>
	</g>
</g>
</svg>
