<?xml version="1.0" encoding="utf-8"?>
<!-- Generator: Adobe Illustrator 21.1.0, SVG Export Plug-In . SVG Version: 6.00 Build 0)  -->
<svg version="1.1" id="Capa_1" xmlns="http://www.w3.org/2000/svg" xmlns:xlink="http://www.w3.org/1999/xlink" x="0px" y="0px"
	 viewBox="0 0 30 14" style="enable-background:new 0 0 30 14;" xml:space="preserve">
<style type="text/css">
	.st0{fill-rule:evenodd;clip-rule:evenodd;fill:#73B3D8;}
</style>
<g id="Shape_5">
	<g>
		<path class="st0" d="M30,1.5C30,0.7,29.3,0,28.5,0l-17,0c-0.8,0-1.5,0.7-1.5,1.5l0,10.9c0,0.4,0.2,0.8,0.4,1.1
			c0.3,0.3,0.7,0.4,1.1,0.4l17,0c0.8,0,1.5-0.7,1.5-1.5L30,1.5z M11.6,12.3l0-10.7l16.7,0l0,10.7L11.6,12.3z M25.4,3.4l-5.5,4.3
			l-5.4-4.3c-0.2-0.1-0.4-0.2-0.6-0.2c-0.2,0-0.4,0.1-0.5,0.3c-0.2,0.3-0.2,0.8,0.1,1l6,4.8c0.1,0.1,0.3,0.2,0.5,0.2
			c0.2,0,0.3-0.1,0.5-0.2l6-4.7c0.2-0.1,0.3-0.3,0.3-0.5c0-0.2,0-0.4-0.2-0.6C26.3,3.2,25.8,3.2,25.4,3.4z M13.7,4.4L13.7,4.4
			L13.7,4.4L13.7,4.4z M8.3,1.2c0-0.3-0.3-0.6-0.6-0.6l-7.1,0C0.3,0.6,0,0.9,0,1.2c0,0.2,0.1,0.3,0.2,0.4c0.1,0.1,0.3,0.2,0.4,0.2
			l7.1,0C8.1,1.8,8.3,1.6,8.3,1.2z M8.3,4.8c0-0.3-0.3-0.6-0.6-0.6l-4.1,0c-0.3,0-0.6,0.3-0.6,0.6c0,0.2,0.1,0.3,0.2,0.4
			c0.1,0.1,0.3,0.2,0.4,0.2l4.1,0C8.1,5.4,8.3,5.2,8.3,4.8z M7.7,7.9H5.9c-0.3,0-0.6,0.3-0.6,0.6c0,0.2,0.1,0.3,0.2,0.4
			C5.6,9,5.7,9.1,5.9,9.1h1.9c0.3,0,0.6-0.3,0.6-0.6C8.3,8.1,8.1,7.9,7.7,7.9z"/>
	</g>
</g>
</svg>
